<?xml version="1.0" encoding="UTF-8" standalone="no"?>
<!-- Created with Inkscape (http://www.inkscape.org/) -->

<svg
   width="157.59239mm"
   height="36.589172mm"
   viewBox="0 0 157.59239 36.589172"
   version="1.1"
   id="svg1"
   inkscape:version="1.4 (e7c3feb100, 2024-10-09)"
   sodipodi:docname="logo.svg"
   xmlns:inkscape="http://www.inkscape.org/namespaces/inkscape"
   xmlns:sodipodi="http://sodipodi.sourceforge.net/DTD/sodipodi-0.dtd"
   xmlns="http://www.w3.org/2000/svg"
   xmlns:svg="http://www.w3.org/2000/svg">
  <sodipodi:namedview
     id="namedview1"
     pagecolor="#ffffff"
     bordercolor="#666666"
     borderopacity="1.0"
     inkscape:showpageshadow="2"
     inkscape:pageopacity="0.0"
     inkscape:pagecheckerboard="0"
     inkscape:deskcolor="#d1d1d1"
     inkscape:document-units="mm"
     inkscape:zoom="5.6568542"
     inkscape:cx="491.26244"
     inkscape:cy="44.636116"
     inkscape:window-width="1770"
     inkscape:window-height="1063"
     inkscape:window-x="150"
     inkscape:window-y="0"
     inkscape:window-maximized="1"
     showgrid="false"
     inkscape:current-layer="layer1">
    <inkscape:grid
       id="grid29"
       units="mm"
       originx="-49.98403"
       originy="-145.45944"
       spacingx="0.26458333"
       spacingy="0.26458334"
       empcolor="#3f3fff"
       empopacity="0.25098039"
       color="#3f3fff"
       opacity="0.1254902"
       empspacing="5"
       enabled="true"
       visible="false" />
    <inkscape:page
       x="0"
       y="0"
       width="157.59238"
       height="36.589172"
       id="page49"
       margin="5"
       bleed="0" />
  </sodipodi:namedview>
  <defs
     id="defs1">
    <filter
       style="color-interpolation-filters:sRGB"
       inkscape:label="Drop Shadow"
       id="filter35"
       x="-0.021591605"
       y="-0.031107012"
       width="1.0858276"
       height="1.1111216">
      <feFlood
         result="flood"
         in="SourceGraphic"
         flood-opacity="1.000000"
         flood-color="rgb(238,82,83)"
         id="feFlood34" />
      <feOffset
         result="offset"
         in="SourceGraphic"
         dx="1.3999999999999999"
         dy="1.100000"
         id="feOffset34" />
      <feComposite
         result="comp1"
         operator="in"
         in="flood"
         in2="offset"
         id="feComposite34" />
      <feComposite
         result="comp2"
         operator="over"
         in="SourceGraphic"
         in2="comp1"
         id="feComposite35" />
    </filter>
    <filter
       style="color-interpolation-filters:sRGB"
       id="filter36"
       inkscape:label="filter2" />
    <filter
       style="color-interpolation-filters:sRGB"
       inkscape:label="Drop Shadow"
       id="filter49"
       x="-0.038594595"
       y="-0.031844506"
       width="1.0556668"
       height="1.1327128">
      <feFlood
         result="flood"
         in="SourceGraphic"
         flood-opacity="1.000000"
         flood-color="rgb(238,82,83)"
         id="feFlood48" />
      <feOffset
         result="offset"
         in="SourceGraphic"
         dx="-0.500000"
         dy="0.84999999999999998"
         id="feOffset48" />
      <feComposite
         result="comp1"
         operator="in"
         in="flood"
         in2="offset"
         id="feComposite48" />
      <feComposite
         result="comp2"
         operator="over"
         in="SourceGraphic"
         in2="comp1"
         id="feComposite49" />
    </filter>
  </defs>
  <g
     inkscape:label="Layer 1"
     inkscape:groupmode="layer"
     id="layer1"
     transform="translate(-49.984033,-145.45944)">
    <g
       id="g51"
       transform="matrix(0.46406855,0,0,0.46406855,100.37538,67.074282)"
       style="display:inline;filter:url(#filter35)"
       inkscape:label="controller_black">
      <path
         style="opacity:1;fill:none;fill-opacity:1;fill-rule:evenodd;stroke:#000000;stroke-width:1.4;stroke-linecap:round;stroke-linejoin:round;stroke-dasharray:none;stroke-opacity:1;paint-order:fill markers stroke"
         d="m 136.08869,183.21221 c 0.8058,0.5948 1.17928,0.76053 1.63066,0.98394 0.45137,0.22341 3.2914,0.53747 4.01296,0.16448 0.72158,-0.37297 0.70271,-0.61059 1.6102,-1.04951 0.90749,-0.43892 7.29626,-0.38515 8.14719,0.14979 0.85093,0.53494 2.45291,2.94947 2.56054,4.77651 0.10763,1.82705 -0.0674,4.37847 -0.0132,5.32711 0.0542,0.94864 2.1289,9.20477 1.5481,10.02758 -0.5808,0.82281 -2.60244,1.70443 -3.72147,1.64126 -1.11903,-0.0632 -6.6117,-7.78907 -7.83667,-8.29388 -1.22497,-0.50483 -7.57021,-0.61607 -8.76428,-0.13494 -1.19407,0.48117 -7.01265,7.85437 -8.18248,7.9707 -1.16984,0.11632 -3.72859,-0.71334 -4.12392,-1.89425 -0.39534,-1.18092 2.04618,-8.78677 2.27979,-10.47515 0.23361,-1.68837 -0.0467,-2.53206 0.23169,-4.95333 0.27837,-2.42127 2.08694,-3.99054 2.97806,-4.42236 0.89112,-0.43182 6.83702,-0.41275 7.64283,0.18205 z"
         id="path42"
         sodipodi:nodetypes="zzzzzzzzzzzzzzzcz" />
      <path
         style="opacity:1;fill:none;fill-opacity:1;fill-rule:evenodd;stroke:#000000;stroke-width:1.04296;stroke-linecap:round;stroke-linejoin:round;stroke-dasharray:none;stroke-opacity:1;paint-order:fill markers stroke"
         d="m 131.51244,188.29805 c 0.18793,-0.34414 0.15492,-1.62145 0.42492,-1.78799 0.27001,-0.16654 1.99018,-0.25159 2.28144,0 0.29126,0.25158 0.0478,1.5941 0.22499,1.89423 0.17721,0.30014 1.30951,0.0777 1.58669,0.38721 0.27719,0.30953 0.18949,1.45012 0,1.74462 -0.18948,0.2945 -1.44345,0.13477 -1.6398,0.35917 -0.19635,0.22447 -0.2071,1.158 -0.57453,1.4525 -0.3675,0.2945 -1.5163,0.12145 -1.81173,-0.0671 -0.29542,-0.18855 -0.18403,-1.19683 -0.34525,-1.45248 -0.16122,-0.25566 -1.65917,-0.21645 -1.86908,-0.56054 -0.20992,-0.3441 -0.22987,-1.19619 0,-1.47623 0.22986,-0.28003 1.53441,-0.14921 1.72235,-0.49334 z"
         id="path43"
         sodipodi:nodetypes="zzzzzzzzzzzzz" />
      <path
         style="opacity:1;fill:none;fill-opacity:1;fill-rule:evenodd;stroke:#000000;stroke-width:1.04296;stroke-linecap:round;stroke-linejoin:round;stroke-dasharray:none;stroke-opacity:1;paint-order:fill markers stroke"
         d="m 144.52274,190.05888 c -2.13499,0.51423 -0.82406,3.78009 1.05781,2.56897 1.88187,-1.21113 1.07719,-3.08319 -1.05781,-2.56897 z"
         id="path44"
         sodipodi:nodetypes="zzz" />
      <path
         style="opacity:1;fill:none;fill-opacity:1;fill-rule:evenodd;stroke:#000000;stroke-width:1.04296;stroke-linecap:round;stroke-linejoin:round;stroke-dasharray:none;stroke-opacity:1;paint-order:fill markers stroke"
         d="m 147.45364,189.16804 c 1.11738,1.0836 3.44985,-1.31178 1.75144,-2.38197 -1.69842,-1.07018 -2.86882,1.29836 -1.75144,2.38197 z"
         id="path45"
         sodipodi:nodetypes="zzz" />
    </g>
    <g
       id="g50"
       transform="matrix(0.82877471,0,0,0.82877471,59.136711,53.026932)"
       style="display:inline;filter:url(#filter49)">
      <path
         style="opacity:1;fill:none;fill-opacity:1;fill-rule:evenodd;stroke:#000000;stroke-width:0.78429034;stroke-linecap:round;stroke-linejoin:round;stroke-dasharray:none;stroke-opacity:1;paint-order:fill markers stroke"
         d="m 149.86663,128.10694 c 0.17822,0 11.7396,-0.40941 18.29636,-0.511 0.28097,-0.004 0.58969,-0.0454 0.85085,-0.049 2.12805,-0.0298 3.55538,-0.0356 3.58117,-0.005 0.1028,0.12417 0.22062,1.15512 -0.0647,1.43625 -0.28523,0.28111 -5.70821,0.82601 -6.0695,1.06538 -0.36129,0.23936 -0.4551,0.26006 -0.87168,0.77482 -0.4166,0.51475 -8.08148,0.33879 -8.49087,0.29057 -0.40937,-0.0482 -0.35763,-0.61138 -0.58112,-0.80713 -0.2235,-0.19572 -6.21282,-1.00608 -6.4892,-1.32366 -0.27637,-0.31757 -0.40948,-0.64675 -0.16138,-0.87168 z"
         id="path46"
         sodipodi:nodetypes="sssszzzzzzzs" />
      <path
         style="fill:none;fill-opacity:1;fill-rule:evenodd;stroke:#000000;stroke-width:0.78429034;stroke-linecap:round;stroke-linejoin:round;stroke-dasharray:none;stroke-opacity:1;paint-order:fill markers stroke"
         d="m 154.83185,118.87626 c 0.23478,-0.0622 4.36144,0.10251 7.83602,0.19042 0.45916,0.0117 0.77198,-0.0956 1.17531,-0.10284 1.49708,-0.0269 2.66452,-0.036 2.74707,0.0658 0.27311,0.33687 0.18412,0.49756 0.45878,0.67896 0.27466,0.18141 0.76095,-0.23269 2.04003,0.60994 1.27908,0.84265 1.08316,2.42762 0.12491,3.51855 -0.95825,1.09093 -2.48994,0.3806 -2.73202,0.89234 -0.24206,0.51174 -2.74241,1.21766 -2.93163,1.34679 -0.18922,0.12912 -0.0585,0.4086 -0.24549,0.54836 -0.18694,0.13977 -4.64717,0.003 -4.91323,-0.16407 -0.26605,-0.1675 -0.0803,-0.32947 -0.33081,-0.51549 -0.25055,-0.18605 -3.04142,-1.09097 -3.55319,-3.10846 -0.51177,-2.01751 -0.0567,-3.85943 0.32425,-3.96033 z"
         id="path47"
         sodipodi:nodetypes="sssszzzzzzzzzss" />
      <path
         style="fill:none;fill-opacity:1;fill-rule:evenodd;stroke:#000000;stroke-width:0.57916825;stroke-linecap:round;stroke-linejoin:round;stroke-dasharray:none;stroke-opacity:1;paint-order:fill markers stroke"
         d="m 167.11563,121.06065 c -0.15167,0.0373 0.0691,0.70056 0.0754,1.25009 0.006,0.54953 -0.25403,1.10316 -0.18991,1.16471 0.17118,0.16434 1.7775,-0.21788 1.86076,-1.43373 0.0833,-1.21587 -1.50378,-1.04081 -1.74629,-0.98107 z"
         id="path48"
         sodipodi:nodetypes="szszs" />
    </g>
    <path
       id="path29"
       style="opacity:1;fill:none;fill-opacity:0.992157;fill-rule:evenodd;stroke:#5edce7;stroke-width:1.4;stroke-linecap:round;stroke-linejoin:round;stroke-dasharray:none;stroke-opacity:1;paint-order:fill markers stroke"
       d="m 134.67,153.739 c 1.133,1.54 0.704,3.481 0.584,6.058 -0.101,-3.664 0.997,-5.614 5.248,-5.38 4.251,0.235 4.765,5.061 4.815,7.126 m -20.196,-8.649 c -1.996,0.127 -4.281,1.435 -4.573,3.188 -0.292,1.753 0.925,4.39 4.523,4.437 3.597,0.047 7.039,-1.017 6.612,-2.97 -0.426,-1.953 -3.025,-4.129 -4.294,-4.487 m -25.11,-0.658 c 1.387,1.848 0.764,6.176 0.866,8.823 -0.125,-2.331 1.7,-8.448 4.463,-7.635 2.153,1.2 3.377,6.059 2.86,7.555 -0.127,-1.829 0.463,-8.154 3.514,-7.83 3.05,0.324 2.874,4.357 3.135,6.445 m -31.9649,-6.086 c 1.5921,2.476 1.4489,4.451 1.2914,7.211 0.0733,-2.679 -0.3471,-7.701 3.0494,-7.512 3.3966,0.19 3.6058,4.793 3.46,7.127 -0.3914,-2.254 -0.4588,-7.259 2.6923,-7.375 3.1512,-0.115 3.9962,5.837 4.1164,8.541 M 78.4409,153.84 c -2.8295,-1.018 -7.5406,1.445 -7.1975,4.519 0.7751,2.105 4.5943,2.176 6.5457,1.757 1.1083,-0.214 2.3834,-1.427 3.1172,-2.304 m -6.3689,-5.832 c 2.9676,0.269 6.7192,1.488 7.1863,4.676 0.1704,1.347 -1.275,2.804 -0.9184,4.14 m -18.7485,-8.594 c -3.0072,0.784 -6.2274,1.189 -6.3669,3.858 -0.1395,2.669 2.1011,5.402 6.3869,5.045 4.2857,-0.358 3.2156,-4.855 3.9005,-5.534 1.2019,0.648 1.3847,1.975 1.5756,4.827 0.1909,2.852 1.6993,8.054 1.5652,10.609 -0.1342,2.555 -1.9506,5.268 -5.1704,5.34 -3.2199,0.072 -6.0815,-2.332 -5.8849,-4.029" />
    <path
       id="path2"
       style="opacity:1;fill:none;fill-opacity:0.992157;fill-rule:evenodd;stroke:#000000;stroke-width:1.4;stroke-linecap:round;stroke-linejoin:round;stroke-dasharray:none;stroke-opacity:1;paint-order:fill markers stroke"
       d="m 134.88118,152.87755 c 1.13324,1.54087 1.3111,5.14396 1.19059,7.72086 -0.10123,-3.66372 0.41658,-7.29528 4.66781,-7.06086 4.25124,0.23443 4.20721,5.24172 4.25747,7.30683 m -20.12024,-7.84871 c -1.99591,0.12722 -3.57392,2.23426 -3.86619,3.98731 -0.29228,1.75306 1.44273,3.90133 5.04034,3.94851 3.59761,0.0472 5.43262,-2.37408 5.0062,-4.32719 -0.42642,-1.9531 -2.19696,-3.23677 -3.46601,-3.59475 m -25.18272,-0.0784 c 1.38716,1.84803 1.36052,5.15242 1.46238,7.79936 -0.12553,-2.33116 1.23027,-8.2155 3.99328,-7.40292 2.15232,1.20057 2.79342,5.72425 2.2764,7.22014 -0.12603,-1.82872 0.89169,-7.67551 3.94178,-7.35161 3.05008,0.3239 2.21488,5.41825 2.47563,7.50659 m -30.696589,-7.94117 c 1.592046,2.47516 1.388831,5.14307 1.231293,7.90303 0.07325,-2.67901 -0.118979,-8.098 3.277606,-7.9086 3.396584,0.1894 2.786871,5.3112 2.641088,7.64445 -0.391413,-2.25324 0.301157,-7.48186 3.452289,-7.59738 3.15112,-0.11553 2.489176,5.20798 2.609393,7.91187 M 77.623059,154.0989 c -2.829479,-1.01794 -5.762044,1.38844 -5.418914,4.46194 0.775066,2.10489 3.41595,2.54368 5.367444,2.12469 1.108286,-0.21393 2.923072,-1.15485 3.656885,-2.03148 m -6.402537,-7.49461 c 2.967615,0.26909 6.258054,2.11718 6.725179,5.30544 0.170385,1.34631 -0.467247,2.68912 -0.110632,4.02569 m -18.903352,-9.17279 c -3.007209,0.78382 -5.901803,3.0602 -6.04129,5.72914 -0.139487,2.66894 1.397685,4.26848 5.683408,3.91121 4.285724,-0.35727 3.573225,-4.97476 4.258089,-5.65411 1.201922,0.64819 1.149105,3.17817 1.340018,6.02979 0.190913,2.85163 0.564814,7.45169 0.430665,10.00667 -0.134148,2.55497 -2.02536,4.93396 -5.245179,5.00577 -3.219819,0.0718 -5.720476,-2.31665 -5.523904,-4.01341" />
  </g>
</svg>
